<svg width="806" height="957" viewBox="0 0 806 957" fill="none" xmlns="http://www.w3.org/2000/svg">
<g opacity="0.25" filter="url(#filter0_f_401_1648)">
<circle cx="709.851" cy="510.85" r="224.15" fill="url(#paint0_linear_401_1648)"/>
</g>
<g opacity="0.5">
<line opacity="0.2" y1="-0.814957" x2="716.347" y2="-0.814957" transform="matrix(4.37114e-08 1 1 -4.37114e-08 736.557 0.882446)" stroke="url(#paint1_linear_401_1648)" stroke-width="1.62991"/>
<line opacity="0.2" y1="-0.814957" x2="716.347" y2="-0.814957" transform="matrix(4.37114e-08 1 1 -4.37114e-08 684.328 0.882446)" stroke="url(#paint2_linear_401_1648)" stroke-width="1.62991"/>
<line opacity="0.2" y1="-0.814957" x2="716.347" y2="-0.814957" transform="matrix(4.37114e-08 1 1 -4.37114e-08 632.098 0.882446)" stroke="url(#paint3_linear_401_1648)" stroke-width="1.62991"/>
<line opacity="0.2" y1="-0.814957" x2="716.347" y2="-0.814957" transform="matrix(4.37114e-08 1 1 -4.37114e-08 579.869 0.882446)" stroke="url(#paint4_linear_401_1648)" stroke-width="1.62991"/>
<line opacity="0.2" y1="-0.814957" x2="716.347" y2="-0.814957" transform="matrix(4.37114e-08 1 1 -4.37114e-08 527.639 0.882446)" stroke="url(#paint5_linear_401_1648)" stroke-width="1.62991"/>
<line opacity="0.2" y1="-0.814957" x2="716.347" y2="-0.814957" transform="matrix(4.37114e-08 1 1 -4.37114e-08 475.41 0.882446)" stroke="url(#paint6_linear_401_1648)" stroke-width="1.62991"/>
<line opacity="0.2" y1="-0.814957" x2="716.347" y2="-0.814957" transform="matrix(4.37114e-08 1 1 -4.37114e-08 423.182 0.882446)" stroke="url(#paint7_linear_401_1648)" stroke-width="1.62991"/>
<line opacity="0.2" y1="-0.814957" x2="716.347" y2="-0.814957" transform="matrix(4.37114e-08 1 1 -4.37114e-08 370.951 0.882446)" stroke="url(#paint8_linear_401_1648)" stroke-width="1.62991"/>
<line opacity="0.2" y1="-0.814957" x2="716.347" y2="-0.814957" transform="matrix(4.37114e-08 1 1 -4.37114e-08 318.723 0.882446)" stroke="url(#paint9_linear_401_1648)" stroke-width="1.62991"/>
<line opacity="0.2" y1="-0.814957" x2="716.347" y2="-0.814957" transform="matrix(4.37114e-08 1 1 -4.37114e-08 266.494 0.882446)" stroke="url(#paint10_linear_401_1648)" stroke-width="1.62991"/>
<line opacity="0.2" y1="-0.814957" x2="716.347" y2="-0.814957" transform="matrix(4.37114e-08 1 1 -4.37114e-08 214.264 0.882446)" stroke="url(#paint11_linear_401_1648)" stroke-width="1.62991"/>
<line opacity="0.2" y1="-0.814957" x2="716.347" y2="-0.814957" transform="matrix(4.37114e-08 1 1 -4.37114e-08 162.035 0.882446)" stroke="url(#paint12_linear_401_1648)" stroke-width="1.62991"/>
<line opacity="0.2" y1="-0.814957" x2="716.347" y2="-0.814957" transform="matrix(4.37114e-08 1 1 -4.37114e-08 109.805 0.882446)" stroke="url(#paint13_linear_401_1648)" stroke-width="1.62991"/>
<line opacity="0.2" y1="-0.814957" x2="692.747" y2="-0.814957" transform="matrix(-1 4.37114e-08 4.37114e-08 1 693.746 489.439)" stroke="url(#paint14_linear_401_1648)" stroke-width="1.62991"/>
<line opacity="0.2" y1="-0.814957" x2="692.747" y2="-0.814957" transform="matrix(-1 4.37114e-08 4.37114e-08 1 693.746 437.209)" stroke="url(#paint15_linear_401_1648)" stroke-width="1.62991"/>
<line opacity="0.2" y1="-0.814957" x2="692.747" y2="-0.814957" transform="matrix(-1 4.37114e-08 4.37114e-08 1 693.746 384.98)" stroke="url(#paint16_linear_401_1648)" stroke-width="1.62991"/>
<line opacity="0.2" y1="-0.814957" x2="692.747" y2="-0.814957" transform="matrix(-1 4.37114e-08 4.37114e-08 1 693.746 332.751)" stroke="url(#paint17_linear_401_1648)" stroke-width="1.62991"/>
<line opacity="0.2" y1="-0.814957" x2="692.747" y2="-0.814957" transform="matrix(-1 4.37114e-08 4.37114e-08 1 693.746 280.522)" stroke="url(#paint18_linear_401_1648)" stroke-width="1.62991"/>
<line opacity="0.2" y1="-0.814957" x2="692.747" y2="-0.814957" transform="matrix(-1 4.37114e-08 4.37114e-08 1 693.746 228.292)" stroke="url(#paint19_linear_401_1648)" stroke-width="1.62991"/>
<line opacity="0.2" y1="-0.814957" x2="692.747" y2="-0.814957" transform="matrix(-1 4.37114e-08 4.37114e-08 1 693.746 176.063)" stroke="url(#paint20_linear_401_1648)" stroke-width="1.62991"/>
<line opacity="0.2" y1="-0.814957" x2="692.747" y2="-0.814957" transform="matrix(-1 4.37114e-08 4.37114e-08 1 693.746 123.834)" stroke="url(#paint21_linear_401_1648)" stroke-width="1.62991"/>
</g>
<defs>
<filter id="filter0_f_401_1648" x="263.701" y="64.701" width="892.299" height="892.299" filterUnits="userSpaceOnUse" color-interpolation-filters="sRGB">
<feFlood flood-opacity="0" result="BackgroundImageFix"/>
<feBlend mode="normal" in="SourceGraphic" in2="BackgroundImageFix" result="shape"/>
<feGaussianBlur stdDeviation="111" result="effect1_foregroundBlur_401_1648"/>
</filter>
<linearGradient id="paint0_linear_401_1648" x1="612.988" y1="338.94" x2="846.338" y2="724.025" gradientUnits="userSpaceOnUse">
<stop stop-color="#11568C"/>
<stop offset="1" stop-color="#00C5F4"/>
</linearGradient>
<linearGradient id="paint1_linear_401_1648" x1="716.347" y1="-1.77031e-05" x2="0" y2="3.76811e-05" gradientUnits="userSpaceOnUse">
<stop stop-color="#000B13"/>
<stop offset="0.496645" stop-color="white"/>
<stop offset="1" stop-color="#000B13"/>
</linearGradient>
<linearGradient id="paint2_linear_401_1648" x1="716.347" y1="-1.77031e-05" x2="0" y2="3.76811e-05" gradientUnits="userSpaceOnUse">
<stop stop-color="#000B13"/>
<stop offset="0.496645" stop-color="white"/>
<stop offset="1" stop-color="#000B13"/>
</linearGradient>
<linearGradient id="paint3_linear_401_1648" x1="716.347" y1="-1.77031e-05" x2="0" y2="3.76811e-05" gradientUnits="userSpaceOnUse">
<stop stop-color="#000B13"/>
<stop offset="0.496645" stop-color="white"/>
<stop offset="1" stop-color="#000B13"/>
</linearGradient>
<linearGradient id="paint4_linear_401_1648" x1="716.347" y1="-1.77031e-05" x2="0" y2="3.76811e-05" gradientUnits="userSpaceOnUse">
<stop stop-color="#000B13"/>
<stop offset="0.496645" stop-color="white"/>
<stop offset="1" stop-color="#000B13"/>
</linearGradient>
<linearGradient id="paint5_linear_401_1648" x1="716.347" y1="-1.77031e-05" x2="0" y2="3.76811e-05" gradientUnits="userSpaceOnUse">
<stop stop-color="#000B13"/>
<stop offset="0.496645" stop-color="white"/>
<stop offset="1" stop-color="#000B13"/>
</linearGradient>
<linearGradient id="paint6_linear_401_1648" x1="716.347" y1="-1.77031e-05" x2="0" y2="3.76811e-05" gradientUnits="userSpaceOnUse">
<stop stop-color="#000B13"/>
<stop offset="0.496645" stop-color="white"/>
<stop offset="1" stop-color="#000B13"/>
</linearGradient>
<linearGradient id="paint7_linear_401_1648" x1="716.347" y1="-1.77031e-05" x2="0" y2="3.76811e-05" gradientUnits="userSpaceOnUse">
<stop stop-color="#000B13"/>
<stop offset="0.496645" stop-color="white"/>
<stop offset="1" stop-color="#000B13"/>
</linearGradient>
<linearGradient id="paint8_linear_401_1648" x1="716.347" y1="-1.77031e-05" x2="0" y2="3.76811e-05" gradientUnits="userSpaceOnUse">
<stop stop-color="#000B13"/>
<stop offset="0.496645" stop-color="white"/>
<stop offset="1" stop-color="#000B13"/>
</linearGradient>
<linearGradient id="paint9_linear_401_1648" x1="716.347" y1="-1.77031e-05" x2="0" y2="3.76811e-05" gradientUnits="userSpaceOnUse">
<stop stop-color="#000B13"/>
<stop offset="0.496645" stop-color="white"/>
<stop offset="1" stop-color="#000B13"/>
</linearGradient>
<linearGradient id="paint10_linear_401_1648" x1="716.347" y1="-1.77031e-05" x2="0" y2="3.76811e-05" gradientUnits="userSpaceOnUse">
<stop stop-color="#000B13"/>
<stop offset="0.496645" stop-color="white"/>
<stop offset="1" stop-color="#000B13"/>
</linearGradient>
<linearGradient id="paint11_linear_401_1648" x1="716.347" y1="-1.77031e-05" x2="0" y2="3.76811e-05" gradientUnits="userSpaceOnUse">
<stop stop-color="#000B13"/>
<stop offset="0.496645" stop-color="white"/>
<stop offset="1" stop-color="#000B13"/>
</linearGradient>
<linearGradient id="paint12_linear_401_1648" x1="716.347" y1="-1.77031e-05" x2="0" y2="3.76811e-05" gradientUnits="userSpaceOnUse">
<stop stop-color="#000B13"/>
<stop offset="0.496645" stop-color="white"/>
<stop offset="1" stop-color="#000B13"/>
</linearGradient>
<linearGradient id="paint13_linear_401_1648" x1="716.347" y1="-1.77031e-05" x2="0" y2="3.76811e-05" gradientUnits="userSpaceOnUse">
<stop stop-color="#000B13"/>
<stop offset="0.496645" stop-color="white"/>
<stop offset="1" stop-color="#000B13"/>
</linearGradient>
<linearGradient id="paint14_linear_401_1648" x1="692.747" y1="-1.77031e-05" x2="0" y2="3.4092e-05" gradientUnits="userSpaceOnUse">
<stop stop-color="#000B13"/>
<stop offset="0.496645" stop-color="white"/>
<stop offset="1" stop-color="#000B13"/>
</linearGradient>
<linearGradient id="paint15_linear_401_1648" x1="692.747" y1="-1.77031e-05" x2="0" y2="3.4092e-05" gradientUnits="userSpaceOnUse">
<stop stop-color="#000B13"/>
<stop offset="0.496645" stop-color="white"/>
<stop offset="1" stop-color="#000B13"/>
</linearGradient>
<linearGradient id="paint16_linear_401_1648" x1="692.747" y1="-1.77031e-05" x2="0" y2="3.4092e-05" gradientUnits="userSpaceOnUse">
<stop stop-color="#000B13"/>
<stop offset="0.496645" stop-color="white"/>
<stop offset="1" stop-color="#000B13"/>
</linearGradient>
<linearGradient id="paint17_linear_401_1648" x1="692.747" y1="-1.77031e-05" x2="0" y2="3.4092e-05" gradientUnits="userSpaceOnUse">
<stop stop-color="#000B13"/>
<stop offset="0.496645" stop-color="white"/>
<stop offset="1" stop-color="#000B13"/>
</linearGradient>
<linearGradient id="paint18_linear_401_1648" x1="692.747" y1="-1.77031e-05" x2="0" y2="3.4092e-05" gradientUnits="userSpaceOnUse">
<stop stop-color="#000B13"/>
<stop offset="0.496645" stop-color="white"/>
<stop offset="1" stop-color="#000B13"/>
</linearGradient>
<linearGradient id="paint19_linear_401_1648" x1="692.747" y1="-1.77031e-05" x2="0" y2="3.4092e-05" gradientUnits="userSpaceOnUse">
<stop stop-color="#000B13"/>
<stop offset="0.496645" stop-color="white"/>
<stop offset="1" stop-color="#000B13"/>
</linearGradient>
<linearGradient id="paint20_linear_401_1648" x1="692.747" y1="-1.77031e-05" x2="0" y2="3.4092e-05" gradientUnits="userSpaceOnUse">
<stop stop-color="#000B13"/>
<stop offset="0.496645" stop-color="white"/>
<stop offset="1" stop-color="#000B13"/>
</linearGradient>
<linearGradient id="paint21_linear_401_1648" x1="692.747" y1="-1.77031e-05" x2="0" y2="3.4092e-05" gradientUnits="userSpaceOnUse">
<stop stop-color="#000B13"/>
<stop offset="0.496645" stop-color="white"/>
<stop offset="1" stop-color="#000B13"/>
</linearGradient>
</defs>
</svg>
