<svg width="33" height="32" viewBox="0 0 33 32" fill="none" xmlns="http://www.w3.org/2000/svg">
<g clip-path="url(#clip0_738_423)">
<path d="M26.2541 -2.50647H5.85656C1.26833 -2.50647 -2.45117 1.21303 -2.45117 5.80127V26.1988C-2.45117 30.787 1.26833 34.5065 5.85656 34.5065H26.2541C30.8423 34.5065 34.5618 30.787 34.5618 26.1988V5.80127C34.5618 1.21303 30.8423 -2.50647 26.2541 -2.50647Z" fill="url(#paint0_linear_738_423)"/>
<path d="M10.3693 3.90381H21.9079C22.1643 4.03201 22.5489 4.03201 22.8053 4.16022C23.9305 4.34257 24.9825 4.83512 25.8431 5.58251C26.7038 6.3299 27.3389 7.3025 27.6771 8.39101C27.8665 9.01828 27.9953 9.66226 28.0617 10.3141V21.5962C27.8785 23.0261 27.3505 24.39 26.5233 25.5706C25.8136 26.3928 24.9239 27.0403 23.9233 27.4628C22.9227 27.8853 21.8382 28.0713 20.754 28.0065H11.1386C9.42261 28.0898 7.73542 27.5426 6.39497 26.468C5.57984 25.7638 4.93657 24.8824 4.51438 23.8913C4.09218 22.9003 3.90223 21.8258 3.95906 20.7501V11.7756C3.93788 11.132 3.98082 10.4877 4.08726 9.85256C4.21672 8.53818 4.75715 7.29803 5.63174 6.30836C6.50634 5.31869 7.6706 4.62984 8.95908 4.33971L10.3693 3.90381ZM6.39497 16.0834V21.0834C6.3403 21.7201 6.42548 22.3611 6.64454 22.9614C6.8636 23.5618 7.21124 24.107 7.66313 24.5588C8.11501 25.0107 8.66021 25.3584 9.26055 25.5774C9.86089 25.7965 10.5019 25.8817 11.1386 25.827C14.4719 25.9552 17.8053 25.9552 21.1386 25.827C24.0874 25.827 25.754 24.0321 25.8822 21.0834C26.0105 17.75 26.0105 14.4167 25.8822 11.0833C25.9155 10.4516 25.8155 9.82003 25.5889 9.22946C25.3622 8.63889 25.014 8.10256 24.5667 7.65527C24.1194 7.20798 23.5831 6.85972 22.9925 6.63309C22.4019 6.40645 21.7703 6.3065 21.1386 6.33972C17.8053 6.21151 14.4719 6.21151 11.1386 6.33972C10.5019 6.28506 9.86089 6.37024 9.26055 6.5893C8.66021 6.80835 8.11501 7.156 7.66313 7.60788C7.21124 8.05976 6.8636 8.60496 6.64454 9.20531C6.42548 9.80565 6.3403 10.4466 6.39497 11.0833V16.0834Z" fill="white"/>
<path d="M9.9082 16.1346C9.91159 14.4696 10.5745 12.8736 11.7519 11.6963C12.9293 10.5189 14.5252 9.85593 16.1903 9.85254C17.8461 9.88534 19.425 10.5577 20.5961 11.7288C21.7672 12.8999 22.4396 14.4788 22.4724 16.1346C22.469 17.7997 21.806 19.3956 20.6286 20.573C19.4513 21.7504 17.8554 22.4133 16.1903 22.4167C14.5344 22.3839 12.9556 21.7115 11.7845 20.5404C10.6134 19.3694 9.941 17.7905 9.9082 16.1346ZM16.1903 12.1602C15.4116 12.1476 14.6469 12.3677 13.9941 12.7925C13.3413 13.2172 12.8302 13.8272 12.5264 14.5443C12.2225 15.2613 12.1397 16.0528 12.2885 16.8173C12.4373 17.5817 12.811 18.2843 13.3617 18.835C13.9124 19.3857 14.615 19.7594 15.3794 19.9082C16.1439 20.057 16.9354 19.9742 17.6524 19.6703C18.3695 19.3665 18.9795 18.8554 19.4042 18.2026C19.829 17.5498 20.0491 16.7851 20.0365 16.0064C20.0365 14.9863 19.6312 14.0081 18.9099 13.2868C18.1886 12.5655 17.2104 12.1602 16.1903 12.1602Z" fill="white"/>
<path d="M21.0624 9.59615C21.0553 9.39218 21.0902 9.18893 21.165 8.99903C21.2397 8.80914 21.3528 8.63666 21.4971 8.49235C21.6414 8.34804 21.8139 8.23497 22.0038 8.16019C22.1937 8.08541 22.3969 8.05052 22.6009 8.05768C23 8.08468 23.3759 8.25543 23.6587 8.53831C23.9416 8.82119 24.1124 9.19701 24.1394 9.59615C24.1394 10.0042 23.9773 10.3955 23.6888 10.684C23.4003 10.9725 23.0089 11.1346 22.6009 11.1346C22.1929 11.1346 21.8016 10.9725 21.513 10.684C21.2245 10.3955 21.0624 10.0042 21.0624 9.59615Z" fill="white"/>
</g>
<defs>
<linearGradient id="paint0_linear_738_423" x1="-4.81016" y1="36.5578" x2="38.7798" y2="-6.39111" gradientUnits="userSpaceOnUse">
<stop stop-color="#FED576"/>
<stop offset="0.26" stop-color="#F47133"/>
<stop offset="0.61" stop-color="#BC3081"/>
<stop offset="1" stop-color="#4C63D2"/>
</linearGradient>
<clipPath id="clip0_738_423">
<rect x="0.0556641" width="32" height="32" rx="5" fill="white"/>
</clipPath>
</defs>
</svg>
