<svg width="512" height="512" viewBox="0 0 512 512" fill="none" xmlns="http://www.w3.org/2000/svg">
<rect width="512" height="512" fill="#000B13"/>
<path d="M487.64 205.516C485.196 197.51 480.832 190.679 474.635 185.066C466.91 178.061 457.789 174.101 447.359 173.101C442.994 172.709 438.674 172.926 434.353 173.84L433.699 173.884C433.568 173.884 433.437 173.84 433.306 173.753L353.747 120.452L322.02 99.1314L303.559 86.7742C303.341 86.6437 303.21 86.3826 303.21 86.0781C303.865 79.5079 303.385 73.4163 301.77 67.8468C299.282 59.0576 294.7 51.7042 288.066 45.7431C285.928 43.8287 283.571 42.0882 281.04 40.5653C274.406 36.5623 267.293 34.3867 259.699 34.0386C252.978 33.7341 246.694 34.6913 240.846 36.9974C230.503 41.0004 222.604 47.7447 217.105 57.1866C215.621 59.7538 214.399 62.3644 213.483 65.1056C211.082 72.111 210.384 79.3773 211.388 86.9483C211.388 87.1223 211.344 87.2964 211.213 87.3834L81.2047 174.449C81.0738 174.536 80.8555 174.58 80.681 174.536C68.2431 171.404 56.5035 172.926 45.4621 179.149C39.6578 182.412 34.8572 186.72 31.0167 192.115C24.2523 201.557 21.4156 212.13 22.5066 223.791C23.0739 229.752 24.776 235.365 27.6563 240.673C32.4569 249.637 39.4396 256.337 48.6043 260.776C51.0919 261.95 53.6668 262.908 56.3289 263.691C56.4598 263.734 56.5908 263.821 56.6344 263.952L72.9128 301.241L113.849 395.573C114.023 395.834 114.111 396.139 114.154 396.444C114.154 396.574 114.111 396.705 113.98 396.792C106.735 403.057 101.847 410.846 99.4033 420.157C96.6539 430.905 97.614 441.26 102.24 451.268C105.164 457.533 109.223 462.842 114.46 467.193C121.879 473.328 130.433 476.852 140.121 477.81C146.274 478.419 152.428 477.679 158.538 475.634C168.488 472.371 176.475 466.366 182.541 457.62C182.715 457.403 182.977 457.229 183.283 457.229L229.674 457.011C262.492 456.968 295.267 456.881 328.086 456.794C328.173 456.794 328.26 456.881 328.304 457.011C333.148 464.321 339.52 469.847 347.463 473.589C354.62 476.939 362.083 478.375 369.72 477.897C378.274 477.374 386.086 474.72 393.068 469.978C395.469 468.324 397.738 466.497 399.789 464.452C406.772 457.49 411.136 449.049 412.794 439.085C413.754 433.428 413.58 427.772 412.271 422.028C410.132 412.238 405.244 403.928 397.607 397.14C397.476 397.009 397.432 396.792 397.52 396.618L404.11 381.432L453.512 267.65L455.17 263.952C455.214 263.821 455.345 263.734 455.476 263.691C464.641 261.124 472.278 256.337 478.344 249.332C484.847 241.848 488.6 232.972 489.516 222.834C490.084 217.09 489.473 211.303 487.64 205.516ZM298.06 101.96C298.148 101.829 298.322 101.786 298.409 101.873L307.574 107.964L337.163 127.762C363.436 145.384 389.664 162.962 415.937 180.584C415.98 180.584 416.155 180.715 416.417 180.889C416.984 181.194 416.897 181.542 416.111 181.846C405.855 189.461 399.702 199.555 397.607 212.217C397.083 215.263 396.952 218.265 397.127 221.354L397.52 225.619C397.52 225.749 397.476 225.88 397.345 225.923L319.27 253.901C319.139 253.944 319.052 253.901 319.008 253.77C317.917 250.768 316.695 247.809 315.255 244.938C312.549 239.542 309.145 234.625 304.999 230.231C294.351 218.918 281.171 212.174 265.416 209.955C265.154 209.911 264.936 209.693 264.98 209.432L265.067 171.273L265.285 125.847C265.285 125.76 265.329 125.717 265.416 125.673C273.665 124.194 280.909 120.757 287.237 115.361C291.689 111.619 295.311 107.181 298.06 101.96ZM191.444 356.152C191.4 356.152 191.4 356.152 191.444 356.152V356.152ZM104.335 189.852C102.196 187.242 99.7524 184.849 97.003 182.629L96.9593 182.586C96.9157 182.499 96.9157 182.368 97.003 182.281L216.363 102.351C216.45 102.308 216.538 102.351 216.581 102.395C224.044 115.187 235.042 122.976 249.531 125.804C249.749 125.847 249.88 125.934 249.88 126.152L249.662 182.586L249.531 209.606C249.531 209.78 249.4 209.955 249.225 209.955C239.537 211.216 230.59 214.48 222.473 219.745C209.206 228.36 200.172 240.238 195.328 255.511C195.284 255.641 195.11 255.728 194.979 255.685L177.871 249.55L123.319 229.97L114.503 226.793C114.329 226.75 114.241 226.576 114.285 226.402C115.42 219.309 114.94 212.391 112.845 205.734C111.099 199.86 108.263 194.552 104.335 189.852ZM157.447 258.252C157.403 258.252 157.403 258.252 157.447 258.252V258.252ZM86.9654 295.454L73.9165 265.344C73.9165 265.301 73.9165 265.301 73.9165 265.257C73.9165 265.083 74.0038 264.953 74.1784 264.909C76.9278 264.561 79.5463 263.995 82.0775 263.212C93.9917 259.427 103.026 252.117 109.179 241.326C109.223 241.239 109.354 241.152 109.484 241.196L157.84 258.557L192.535 271.044C192.666 271.088 192.753 271.218 192.753 271.349V271.784C192.447 279.442 193.538 286.926 195.895 294.192C199.343 304.504 205.016 313.381 212.872 320.821L216.319 323.954C216.45 324.084 216.45 324.259 216.363 324.389L190.833 355.195L162.727 389.003C162.553 389.177 162.291 389.264 162.073 389.177C150.77 384.609 139.292 384.391 127.683 388.612C127.509 388.612 127.421 388.525 127.334 388.351C113.98 357.371 100.538 326.391 86.9654 295.454ZM321.54 441.434C294.307 441.608 275.498 441.695 265.154 441.695C255.99 441.695 248.571 441.695 242.984 441.782L190.178 441.913C190.047 441.913 189.96 441.913 189.873 441.956C189.742 441.956 189.654 441.913 189.567 441.826C189.48 441.739 189.436 441.565 189.48 441.347C191.269 432.688 190.658 424.204 187.647 415.893C185.028 408.931 181.057 402.883 175.645 397.792C175.558 397.705 175.558 397.575 175.602 397.488L186.25 384.565L217.847 346.493L229.237 332.743C229.456 332.482 229.805 332.395 230.11 332.526C233.863 334.266 237.617 335.571 241.413 336.485C254.855 339.879 268.035 339.052 280.953 334.092C281.04 334.049 281.171 334.092 281.258 334.179L320.012 380.823L334.545 398.358C334.676 398.532 334.676 398.793 334.501 398.924C329.962 403.449 326.558 408.583 324.202 414.327C320.71 422.985 319.838 431.949 321.627 441.173V441.217C321.714 441.347 321.627 441.434 321.54 441.434ZM384.384 388.568C384.34 388.612 384.296 388.655 384.253 388.699L383.991 388.786C383.86 388.699 383.685 388.612 383.554 388.568C371.509 384.217 359.551 384.609 347.725 389.83C347.594 389.873 347.463 389.83 347.375 389.743L335.81 375.819L295.136 326.739C295.049 326.652 295.093 326.521 295.18 326.434C302.25 321.3 308.011 315.165 312.462 307.942C317.917 299.283 321.103 289.885 321.976 279.66C322.369 276.222 322.412 272.785 322.063 269.391C322.063 269.217 322.151 269.043 322.325 268.956L402.32 240.238C409.87 254.075 421.654 262.299 437.714 264.909C437.757 264.909 437.757 264.909 437.801 264.953C437.976 265.04 438.019 265.214 437.976 265.388L433.568 275.656C417.071 313.294 400.706 350.887 384.384 388.568Z" fill="url(#paint0_linear_631_697)"/>
<defs>
<linearGradient id="paint0_linear_631_697" x1="155.001" y1="85.7259" x2="380.469" y2="477.418" gradientUnits="userSpaceOnUse">
<stop stop-color="#11568C"/>
<stop offset="1" stop-color="#00C5F4"/>
</linearGradient>
</defs>
</svg>
