<svg width="75" height="64" viewBox="0 0 75 64" fill="none" xmlns="http://www.w3.org/2000/svg">
<path d="M62.6875 19.4814C62.4196 18.6039 61.9413 17.8552 61.2621 17.24C60.4155 16.4721 59.4157 16.0382 58.2725 15.9285C57.7942 15.8856 57.3207 15.9094 56.8471 16.0096L56.7754 16.0143C56.761 16.0143 56.7467 16.0096 56.7323 16L48.0125 10.158L44.535 7.82118L42.5117 6.46678C42.4878 6.45248 42.4734 6.42386 42.4734 6.39048C42.5452 5.67036 42.4926 5.0027 42.3156 4.39227C42.043 3.42893 41.5407 2.62297 40.8137 1.96961C40.5793 1.75978 40.321 1.56902 40.0436 1.4021C39.3165 0.963354 38.5368 0.724904 37.7045 0.686752C36.9679 0.653369 36.2791 0.758287 35.6382 1.01104C34.5045 1.44979 33.6388 2.18899 33.0361 3.22386C32.8734 3.50523 32.7395 3.79137 32.6391 4.09182C32.376 4.85963 32.2995 5.65605 32.4095 6.48586C32.4095 6.50493 32.4047 6.52401 32.3903 6.53355L18.141 16.0763C18.1267 16.0859 18.1027 16.0906 18.0836 16.0859C16.7204 15.7425 15.4337 15.9094 14.2235 16.5914C13.5874 16.949 13.0612 17.4212 12.6403 18.0125C11.8989 19.0474 11.5879 20.2063 11.7075 21.4844C11.7697 22.1377 11.9563 22.7529 12.272 23.3347C12.7981 24.3172 13.5634 25.0516 14.5679 25.538C14.8406 25.6668 15.1228 25.7717 15.4146 25.8575C15.4289 25.8623 15.4433 25.8719 15.448 25.8862L17.2322 29.9732L21.7189 40.3124C21.738 40.341 21.7476 40.3744 21.7524 40.4078C21.7524 40.4221 21.7476 40.4364 21.7332 40.4459C20.9392 41.1327 20.4035 41.9863 20.1356 43.0069C19.8343 44.1848 19.9395 45.3198 20.4465 46.4167C20.767 47.1034 21.2119 47.6853 21.7859 48.1622C22.599 48.8346 23.5365 49.2209 24.5984 49.3258C25.2729 49.3926 25.9473 49.3115 26.6169 49.0874C27.7075 48.7297 28.5829 48.0716 29.2477 47.113C29.2669 47.0891 29.2956 47.0701 29.3291 47.0701L34.4137 47.0462C38.0107 47.0415 41.6029 47.0319 45.1999 47.0224C45.2095 47.0224 45.219 47.0319 45.2238 47.0462C45.7548 47.8474 46.4531 48.4531 47.3237 48.8632C48.1081 49.2304 48.9261 49.3878 49.7631 49.3353C50.7006 49.2781 51.5569 48.9872 52.3222 48.4674C52.5853 48.2862 52.834 48.0859 53.0588 47.8617C53.8241 47.0987 54.3024 46.1735 54.4842 45.0814C54.5894 44.4614 54.5703 43.8414 54.4268 43.2119C54.1924 42.1389 53.6567 41.228 52.8196 40.4841C52.8053 40.4698 52.8005 40.4459 52.8101 40.4268L53.5323 38.7625L58.947 26.2915L59.1288 25.8862C59.1335 25.8719 59.1479 25.8623 59.1622 25.8575C60.1667 25.5762 61.0038 25.0516 61.6687 24.2838C62.3814 23.4635 62.7927 22.4906 62.8932 21.3795C62.9554 20.7499 62.8884 20.1157 62.6875 19.4814ZM41.909 8.13116C41.9186 8.11686 41.9377 8.11209 41.9473 8.12163L42.9518 8.78929L46.1948 10.9592C49.0743 12.8906 51.9491 14.8173 54.8286 16.7488C54.8334 16.7488 54.8525 16.7631 54.8812 16.7821C54.9434 16.8155 54.9338 16.8537 54.8477 16.8871C53.7237 17.7216 53.0492 18.828 52.8196 20.2158C52.7622 20.5496 52.7479 20.8787 52.767 21.2173L52.8101 21.6847C52.8101 21.699 52.8053 21.7133 52.7909 21.7181L44.2337 24.7845C44.2193 24.7893 44.2098 24.7845 44.205 24.7702C44.0854 24.4412 43.9515 24.1169 43.7936 23.8021C43.4971 23.2107 43.124 22.6719 42.6696 22.1902C41.5024 20.9502 40.0579 20.211 38.3311 19.9678C38.3024 19.9631 38.2785 19.9392 38.2833 19.9106L38.2929 15.7282L38.3168 10.7493C38.3168 10.7398 38.3216 10.735 38.3311 10.7303C39.2352 10.5681 40.0292 10.1914 40.7228 9.60002C41.2107 9.18988 41.6077 8.70344 41.909 8.13116ZM30.2235 35.9917C30.2187 35.9917 30.2187 35.9917 30.2235 35.9917V35.9917ZM20.6761 17.7645C20.4418 17.4784 20.1739 17.2161 19.8726 16.9729L19.8678 16.9681C19.863 16.9586 19.863 16.9443 19.8726 16.9347L32.9548 8.17408C32.9643 8.16932 32.9739 8.17409 32.9787 8.17885C33.7966 9.58094 35.002 10.4346 36.59 10.7446C36.614 10.7493 36.6283 10.7589 36.6283 10.7827L36.6044 16.9681L36.59 19.9297C36.59 19.9488 36.5757 19.9678 36.5566 19.9678C35.4947 20.1061 34.5141 20.4638 33.6244 21.0409C32.1703 21.9851 31.1802 23.2871 30.6492 24.961C30.6444 24.9753 30.6253 24.9848 30.611 24.98L28.7359 24.3076L22.7569 22.1616L21.7906 21.8134C21.7715 21.8087 21.7619 21.7896 21.7667 21.7705C21.8911 20.9932 21.8385 20.2349 21.6089 19.5052C21.4175 18.8614 21.1066 18.2796 20.6761 17.7645ZM26.4974 25.2614C26.4926 25.2614 26.4926 25.2614 26.4974 25.2614V25.2614ZM18.7724 29.3389L17.3422 26.0388C17.3422 26.034 17.3422 26.034 17.3422 26.0292C17.3422 26.0102 17.3518 25.9958 17.3709 25.9911C17.6723 25.9529 17.9592 25.8909 18.2367 25.8051C19.5425 25.3902 20.5326 24.589 21.2071 23.4063C21.2119 23.3967 21.2262 23.3872 21.2406 23.392L26.5404 25.2948L30.3431 26.6635C30.3575 26.6683 30.367 26.6826 30.367 26.6969V26.7446C30.3335 27.5839 30.4531 28.4042 30.7114 29.2006C31.0893 30.3309 31.7111 31.3037 32.5721 32.1192L32.95 32.4626C32.9643 32.4769 32.9643 32.496 32.9548 32.5103L30.1566 35.8868L27.0761 39.5923C27.057 39.6113 27.0283 39.6209 27.0044 39.6113C25.7655 39.1106 24.5075 39.0868 23.2352 39.5493C23.216 39.5493 23.2065 39.5398 23.1969 39.5207C21.7332 36.1252 20.26 32.7297 18.7724 29.3389ZM44.4824 45.3389C41.4977 45.358 39.4361 45.3675 38.3024 45.3675C37.298 45.3675 36.4848 45.3675 35.8726 45.3771L30.0848 45.3914C30.0705 45.3914 30.0609 45.3914 30.0513 45.3961C30.037 45.3961 30.0274 45.3914 30.0178 45.3818C30.0083 45.3723 30.0035 45.3532 30.0083 45.3294C30.2044 44.3803 30.1374 43.4504 29.8074 42.5395C29.5204 41.7765 29.0851 41.1136 28.492 40.5556C28.4824 40.5461 28.4824 40.5318 28.4872 40.5222L29.6543 39.1058L33.1174 34.933L34.3658 33.426C34.3897 33.3973 34.428 33.3878 34.4615 33.4021C34.8729 33.5929 35.2842 33.7359 35.7004 33.8361C37.1736 34.2081 38.6181 34.1175 40.034 33.5738C40.0436 33.569 40.0579 33.5738 40.0675 33.5833L44.315 38.6957L45.9078 40.6176C45.9222 40.6367 45.9222 40.6653 45.903 40.6796C45.4056 41.1756 45.0325 41.7383 44.7742 42.3678C44.3915 43.3169 44.2959 44.2993 44.492 45.3103V45.3151C44.5015 45.3294 44.492 45.3389 44.4824 45.3389ZM51.3703 39.5446C51.3655 39.5494 51.3607 39.5541 51.356 39.5589L51.3273 39.5684C51.3129 39.5589 51.2938 39.5494 51.2794 39.5446C49.9592 39.0677 48.6486 39.1106 47.3524 39.6829C47.338 39.6876 47.3237 39.6829 47.3141 39.6733L46.0465 38.1473L41.5885 32.7678C41.579 32.7583 41.5838 32.744 41.5933 32.7344C42.3682 32.1717 42.9996 31.4993 43.4875 30.7076C44.0854 29.7586 44.4346 28.7285 44.5302 27.6078C44.5733 27.231 44.5781 26.8543 44.5398 26.4823C44.5398 26.4632 44.5494 26.4441 44.5685 26.4346L53.3362 23.2871C54.1637 24.8036 55.4552 25.7049 57.2155 25.9911C57.2202 25.9911 57.2202 25.9911 57.225 25.9958C57.2441 26.0054 57.2489 26.0245 57.2441 26.0435L56.761 27.169C54.953 31.2942 53.1592 35.4146 51.3703 39.5446Z" fill="url(#paint0_linear_23_68)"/>
<path d="M5.50888 60.1991C5.38451 60.1991 5.28885 60.2039 5.22666 60.2182C5.21231 60.223 5.19796 60.2277 5.1884 60.242C5.13578 60.3088 5.05925 60.4233 4.9588 60.5854C4.57614 61.2149 4.17913 61.8635 3.76777 62.5311C3.75342 62.555 3.7295 62.5693 3.70559 62.5693H1.0748C1.05566 62.5693 1.05088 62.5598 1.06045 62.5455C3.40424 58.9353 5.73847 55.3443 8.06314 51.7627C8.06314 51.7627 8.0727 51.7437 8.09184 51.7055C8.1301 51.634 8.20185 51.6006 8.31187 51.6054C8.68974 51.6149 9.45506 51.6197 10.603 51.6101C10.6174 51.6101 10.6317 51.6197 10.6317 51.634C10.7083 51.8772 10.7896 52.1872 10.8805 52.5592C11.6984 55.8736 12.5211 59.2024 13.3439 62.5359C13.3486 62.5455 13.3391 62.5598 13.3295 62.5598H13.3247L10.8279 62.5645C10.8135 62.5645 10.7992 62.555 10.7992 62.5407L10.3017 60.2468C10.2969 60.2134 10.2682 60.1943 10.2347 60.1943C8.67061 60.2134 7.09213 60.2134 5.50888 60.1991ZM6.47509 58.3154C7.59438 58.3297 8.69931 58.3297 9.78989 58.3154C9.82816 58.3154 9.85686 58.2867 9.85686 58.2486C9.85686 58.2438 9.85686 58.239 9.85686 58.2343C9.57465 56.9514 9.302 55.7067 9.03892 54.5002C9.015 54.4 8.9863 54.2855 8.94804 54.1568C8.93847 54.1282 8.92891 54.1282 8.91456 54.152L6.42248 58.2152C6.37943 58.282 6.39856 58.3154 6.47509 58.3154Z" fill="#637177"/>
<path d="M64.7302 53.6465C64.7111 53.6512 64.6967 53.6655 64.6967 53.6846L64.1275 56.4983C64.1227 56.5174 64.1371 56.5413 64.1562 56.546C64.161 56.546 64.161 56.546 64.1658 56.546H69.1786C69.1978 56.546 69.2169 56.5651 69.2169 56.5842C69.2169 56.5889 69.2169 56.5889 69.2169 56.5937L68.8151 58.4965C68.8056 58.5442 68.7625 58.5776 68.7147 58.5776H63.8166C63.7688 58.5776 63.7305 58.611 63.7209 58.6587L62.9365 62.5407C62.9317 62.5645 62.9078 62.5836 62.8839 62.5836L60.4205 62.574C60.4109 62.574 60.4014 62.5645 60.4014 62.555C60.4014 62.555 60.4014 62.555 60.4014 62.5502C60.4492 62.2736 60.5018 62.0018 60.5544 61.7252C61.2289 58.3821 61.9033 55.0295 62.5777 51.6673C62.5825 51.6435 62.6017 51.6292 62.6256 51.6292C62.8982 51.6244 63.1709 51.6196 63.4483 51.6244C63.9745 51.6292 64.2519 51.6292 64.271 51.6292C66.4618 51.6292 68.6477 51.6292 70.8289 51.6292C70.8528 51.6292 70.8671 51.6483 70.8671 51.6673C70.8671 51.6721 70.8671 51.6721 70.8671 51.6769L70.4653 53.5988C70.4606 53.6274 70.4319 53.6512 70.3984 53.6512C68.5616 53.6417 66.7248 53.6322 64.8881 53.6322C64.8163 53.6274 64.7685 53.6369 64.7302 53.6465Z" fill="#637177"/>
<path d="M17.3618 55.2536C16.4673 55.2536 15.5776 55.2536 14.6832 55.2584C14.6258 55.2584 14.5732 55.2536 14.5349 55.2441C14.511 55.2393 14.4966 55.2155 14.5014 55.1917L14.841 53.5702C14.8458 53.5511 14.8601 53.5368 14.8793 53.5368H22.6664C22.6999 53.5368 22.7286 53.5654 22.7286 53.5988C22.7286 53.6036 22.7286 53.6083 22.7286 53.6131L22.3938 55.2155C22.389 55.2393 22.3651 55.2584 22.3412 55.2584L19.5382 55.2489C19.5238 55.2489 19.5143 55.2584 19.5095 55.268C19.4186 55.6638 19.3277 56.0596 19.2512 56.4602C18.8446 58.4918 18.438 60.5139 18.0267 62.5311C18.0219 62.5645 17.9884 62.5884 17.9549 62.5884H15.9794C15.9603 62.5884 15.9412 62.5741 15.9412 62.5502V62.5454C16.0847 61.7681 16.2329 61.0098 16.3812 60.2754C16.7208 58.611 17.0509 56.9466 17.3809 55.2823C17.3809 55.2632 17.3761 55.2536 17.3618 55.2536Z" fill="#637177"/>
<path d="M24.8953 58.9019L24.173 62.5073C24.1634 62.555 24.1252 62.5836 24.0773 62.5836L22.121 62.5741C22.0923 62.5741 22.0684 62.5502 22.0684 62.5216C22.0684 62.5168 22.0684 62.5168 22.0684 62.5121L23.8669 53.5606C23.8716 53.5463 23.8812 53.5368 23.8956 53.5368L25.9189 53.5416C25.938 53.5416 25.9571 53.5559 25.9571 53.5797C25.9571 53.5845 25.9571 53.5845 25.9571 53.5893L25.2588 57.0802C25.254 57.0993 25.2684 57.1183 25.2875 57.1231H25.2923C26.6172 57.1326 27.9279 57.1374 29.2241 57.1326C29.3389 57.1326 29.3963 57.0849 29.4059 56.9943C29.4107 56.9323 29.4154 56.899 29.4154 56.8942C29.6355 55.7925 29.8507 54.6909 30.0755 53.5893C30.0803 53.5606 30.1042 53.5416 30.1329 53.5463H32.1132C32.1419 53.5463 32.1658 53.5702 32.1658 53.5988C32.1658 53.6036 32.1658 53.6036 32.1658 53.6083L30.3769 62.5216C30.3673 62.5645 30.329 62.5979 30.286 62.5979L28.3201 62.5884C28.3009 62.5884 28.2818 62.5693 28.2818 62.5502V62.5455L29.0041 58.9353C29.0089 58.9162 28.9945 58.8972 28.9754 58.8924H28.9706L24.924 58.8972C24.9096 58.8781 24.9 58.8876 24.8953 58.9019Z" fill="#637177"/>
<path d="M32.7875 62.5693C32.7301 62.5693 32.6583 62.5693 32.5722 62.5741C32.5435 62.5741 32.5244 62.555 32.5244 62.5264C32.5244 62.5216 32.5244 62.5216 32.5244 62.5168L34.3181 53.5797C34.3229 53.5511 34.3468 53.532 34.3755 53.5368H36.3749C36.4036 53.5368 36.4228 53.5606 36.4228 53.5845C36.4228 53.5893 36.4228 53.5893 36.4228 53.594L34.983 60.7905C34.9782 60.8238 34.9974 60.8572 35.0308 60.8668C35.0356 60.8668 35.0404 60.8668 35.0452 60.8668H39.4793C39.4936 60.8668 39.5032 60.8763 39.5032 60.8906V60.8954L39.1684 62.5216C39.1588 62.555 39.1301 62.5836 39.0966 62.5836C36.9681 62.5836 34.8634 62.5788 32.7875 62.5693Z" fill="#637177"/>
<path d="M43.5545 57.1994L47.649 57.2042C47.6777 57.2042 47.6968 57.228 47.6968 57.2519C47.6968 57.2566 47.6968 57.2566 47.6968 57.2614L47.405 58.7446C47.4002 58.7684 47.3811 58.7827 47.3572 58.7827L43.2292 58.7875C43.2101 58.7875 43.191 58.8018 43.1814 58.8209C43.1479 58.9162 43.1192 59.0164 43.1001 59.1213C42.9949 59.6984 42.8801 60.2849 42.7605 60.8858C42.7557 60.9001 42.7653 60.9097 42.7796 60.9145H42.7844L47.6585 60.9097C47.6777 60.9097 47.6968 60.9288 47.6968 60.9478C47.6968 60.9526 47.6968 60.9526 47.6968 60.9574L47.362 62.555C47.3572 62.5693 47.3476 62.5788 47.3333 62.5788C45.0899 62.5788 42.8514 62.5788 40.6176 62.5788C40.5698 62.5788 40.5267 62.5788 40.4932 62.5741C40.4741 62.5741 40.4454 62.5741 40.4023 62.5741C40.3497 62.5741 40.3306 62.5502 40.3449 62.493C40.3497 62.4692 40.3545 62.4548 40.3545 62.4501C40.9524 59.4885 41.5455 56.5317 42.1339 53.5702C42.1387 53.5464 42.1578 53.532 42.1817 53.532L48.9644 53.5368C48.9787 53.5368 48.9931 53.5511 48.9931 53.5654V53.5702L48.6582 55.144C48.6535 55.1774 48.62 55.2012 48.5865 55.2012L43.9228 55.206C43.9085 55.206 43.8989 55.2155 43.8941 55.2298C43.7411 55.8736 43.6167 56.527 43.521 57.1803C43.5354 57.1899 43.5402 57.1994 43.5545 57.1994Z" fill="#637177"/>
<path d="M54.5179 55.2537C54.494 55.2537 54.4701 55.2727 54.4653 55.2966L53.016 62.5312C53.0112 62.5598 52.9825 62.5836 52.9538 62.5836L50.9735 62.5741C50.9496 62.5741 50.9305 62.555 50.9305 62.5312C50.9305 62.5264 50.9305 62.5264 50.9305 62.5216L52.3655 55.3109C52.3702 55.2823 52.3511 55.2537 52.3224 55.2489C52.3176 55.2489 52.3176 55.2489 52.3128 55.2489L49.529 55.2394C49.5099 55.2394 49.4907 55.2203 49.4907 55.2012C49.4907 55.1964 49.4907 55.1964 49.4907 55.1917L49.8256 53.5607C49.8303 53.5416 49.8447 53.5321 49.8638 53.5273L57.694 53.5321C57.7036 53.5321 57.7131 53.5416 57.7131 53.5511V53.5559L57.3735 55.225C57.3687 55.2394 57.3592 55.2441 57.3496 55.2441L54.5179 55.2537Z" fill="#637177"/>
<path d="M57.115 62.5741C57.0815 62.5741 57.0576 62.5502 57.0576 62.5168C57.0576 62.5121 57.0576 62.5073 57.0576 62.5073L58.8561 53.575C58.8609 53.5511 58.88 53.5368 58.904 53.5368H60.9129C60.9368 53.5368 60.9512 53.5559 60.9512 53.575C60.9512 53.5797 60.9512 53.5797 60.9512 53.5845L59.1527 62.5359C59.1479 62.5645 59.1192 62.5884 59.0905 62.5884L57.115 62.5741Z" fill="#637177"/>
<path d="M69.9727 62.5741C69.9632 62.5741 69.9536 62.5645 69.9536 62.5502C69.9536 62.5502 69.9536 62.5502 69.9536 62.5455L71.7617 53.5559C71.7665 53.5416 71.776 53.5321 71.7904 53.5321L73.7946 53.5273C73.8185 53.5273 73.8424 53.5464 73.8424 53.575C73.8424 53.5797 73.8424 53.5797 73.8424 53.5845C73.7994 53.8373 73.7563 54.09 73.7037 54.3523C73.1488 57.0802 72.5988 59.7985 72.0487 62.5073C72.0391 62.5502 72.0008 62.5836 71.9578 62.5836L69.9727 62.5741Z" fill="#637177"/>
<defs>
<linearGradient id="paint0_linear_23_68" x1="26.2293" y1="6.35188" x2="50.9416" y2="49.2827" gradientUnits="userSpaceOnUse">
<stop stop-color="#11568C"/>
<stop offset="1" stop-color="#00C5F4"/>
</linearGradient>
</defs>
</svg>
